<?xml version="1.0" encoding="UTF-8"?>
<svg width="400" height="251" version="1.1" viewBox="0 0 105.83333 66.410417" xmlns="http://www.w3.org/2000/svg" xmlns:cc="http://creativecommons.org/ns#" xmlns:dc="http://purl.org/dc/elements/1.1/" xmlns:rdf="http://www.w3.org/1999/02/22-rdf-syntax-ns#">
<g transform="matrix(1.0639 0 0 1.0639 13.603 -250.61)">
<circle cx="35.882" cy="266.71" r="31.144" fill="#f3d99b"/>
<rect x="-12.786" y="248.69" width="99.481" height="34.98" rx="5.1541" ry="5.1541" fill="#f3d99b"/>
<g transform="translate(-79.76 128.5)" fill="#f9e1a1" stroke="#f35716" stroke-linecap="round" stroke-linejoin="bevel" stroke-width="1.7923" aria-label="TÄYDELLINEN UUTTO">
<path d="m78.427 129.99h-1.731v-2.4628h6.5582v2.4628h-1.731v6.9241h-3.0961zm1.731 5.7982v-6.7974h2.0125v-0.33776h-4.3909v0.33776h2.0125v6.7974z"/>
<path d="m86.545 127.53h2.2517l3.5606 9.387h-2.9554l-0.30961-0.84441h-2.8428l-0.30962 0.84441h-2.9554zm1.7592 6.4738-0.6333-1.6466-0.6333 1.6466zm-3.2228 1.7873 0.26739-0.70367h4.6442l0.2674 0.70367h0.39406l-2.7162-7.1352h-0.53479l-2.7162 7.1352zm2.5895-6.7974 2.1955 5.756h-4.3909zm-2.111-3.4339h1.8014v1.4214h-1.8014zm1.2103 0.56294h-0.61923v0.29554h0.61923zm1.2103-0.56294h1.8014v1.4214h-1.8014zm1.2103 0.56294h-0.61923v0.29554h0.61923z"/>
<path d="m92.962 132.87-2.9132-5.3479h3.3354l1.0837 1.9844 1.0696-1.9844h3.3354l-2.9132 5.3479v4.0391h-2.9976zm1.6888 2.9132v-3.3635l2.0547-3.7717h-0.43628l-1.8014 3.3354-1.8155-3.3354h-0.4222l2.0406 3.7717v3.3635z"/>
<path d="m99.096 136.91v-9.387h2.6036q1.3229 0 2.3503 0.29554 1.0414 0.29554 1.7451 0.88662 0.71774 0.59109 1.0836 1.4777 0.37998 0.87255 0.37998 2.0266t-0.37998 2.0406q-0.36591 0.87255-1.0836 1.4636-0.70367 0.59108-1.7451 0.90069-1.0274 0.29555-2.3503 0.29555zm1.7732-1.4636v-6.4597h0.83033q1.7873 0 2.7725 0.81626 0.99921 0.80218 0.99921 2.4066t-0.99921 2.4206q-0.98514 0.81625-2.7725 0.81625zm-0.36591 0.33776h1.1962q2.0547 0 3.0962-0.92884 1.0555-0.94292 1.0555-2.6458t-1.0555-2.6317q-1.0414-0.92884-3.0962-0.92884h-1.1962zm1.5903-1.5481q1.0555 0 1.6325-0.49257 0.57701-0.50664 0.57701-1.534t-0.57701-1.5199-1.6325-0.49257z"/>
<path d="m108.03 127.53h5.5308v2.4628h-2.5332v1.0414h2.491v2.3362h-2.491v1.0836h2.6317v2.4628h-5.6294zm4.5879 8.2611v-0.33776h-2.8147v-3.0821h2.674v-0.33776h-2.674v-3.0399h2.8147v-0.33776h-3.1806v7.1352z"/>
<path d="m114.52 127.53h3.1243v6.9241h2.5895v2.4628h-5.7138zm4.9257 8.2611v-0.33776h-3.1524v-6.7974h-0.36591v7.1352z"/>
<path d="m120.73 127.53h3.1243v6.9241h2.5895v2.4628h-5.7138zm4.9257 8.2611v-0.33776h-3.1524v-6.7974h-0.3659v7.1352z"/>
<path d="m126.94 127.53h3.1806v9.387h-3.1806zm1.7732 8.2611v-7.1352h-0.36591v7.1352z"/>
<path d="m131.12 127.53h2.4628l2.5895 3.6169v-3.6169h2.9413v9.387h-2.4769l-2.5754-3.6028v3.6028h-2.9413zm1.6747 8.2611v-6.5019l4.6442 6.5019h0.36591v-7.1352h-0.36591v6.5019l-4.6442-6.5019h-0.36591v7.1352z"/>
<path d="m140.11 127.53h5.5308v2.4628h-2.5332v1.0414h2.491v2.3362h-2.491v1.0836h2.6317v2.4628h-5.6294zm4.5879 8.2611v-0.33776h-2.8147v-3.0821h2.6739v-0.33776h-2.6739v-3.0399h2.8147v-0.33776h-3.1806v7.1352z"/>
<path d="m146.59 127.53h2.4628l2.5895 3.6169v-3.6169h2.9413v9.387h-2.4769l-2.5754-3.6028v3.6028h-2.9413zm1.6747 8.2611v-6.5019l4.6442 6.5019h0.36591v-7.1352h-0.36591v6.5019l-4.6442-6.5019h-0.36591v7.1352z"/>
<path d="m99.763 150.35q-0.88662 0-1.6044-0.22517-0.71774-0.22518-1.2244-0.67553-0.50664-0.45035-0.78811-1.1399-0.26739-0.6896-0.26739-1.6184v-5.9671h2.9976v5.8405q0 0.49257 0.19703 0.75996 0.2111 0.25332 0.6896 0.25332 0.47849 0 0.67552-0.25332 0.2111-0.26739 0.2111-0.75996v-5.8405h3.0117v5.9671q0 0.92884-0.28147 1.6184-0.26739 0.68959-0.78811 1.1399-0.50664 0.45035-1.2244 0.67553-0.71775 0.22517-1.6044 0.22517zm0-1.6888q-2.111 0-2.111-2.0688v-4.7427h-0.36591v4.7427q0 1.1822 0.6333 1.8155 0.64738 0.61923 1.8436 0.61923 1.1962 0 1.8436-0.61923 0.64738-0.6333 0.64738-1.8155v-4.7427h-0.37998v4.7427q0 2.0688-2.111 2.0688z"/>
<path d="m108.45 150.35q-0.88662 0-1.6044-0.22517-0.71775-0.22518-1.2244-0.67553t-0.78811-1.1399q-0.26739-0.6896-0.26739-1.6184v-5.9671h2.9976v5.8405q0 0.49257 0.19703 0.75996 0.2111 0.25332 0.68959 0.25332 0.4785 0 0.67553-0.25332 0.2111-0.26739 0.2111-0.75996v-5.8405h3.0117v5.9671q0 0.92884-0.28147 1.6184-0.2674 0.68959-0.78811 1.1399-0.50664 0.45035-1.2244 0.67553-0.71774 0.22517-1.6044 0.22517zm0-1.6888q-2.111 0-2.111-2.0688v-4.7427h-0.3659v4.7427q0 1.1822 0.6333 1.8155 0.64738 0.61923 1.8436 0.61923 1.1962 0 1.8436-0.61923 0.64738-0.6333 0.64738-1.8155v-4.7427h-0.37999v4.7427q0 2.0688-2.111 2.0688z"/>
<path d="m114.53 143.19h-1.731v-2.4628h6.5582v2.4628h-1.731v6.9241h-3.0962zm1.731 5.7982v-6.7974h2.0125v-0.33776h-4.3909v0.33776h2.0125v6.7974z"/>
<path d="m121.53 143.19h-1.731v-2.4628h6.5582v2.4628h-1.731v6.9241h-3.0961zm1.731 5.7982v-6.7974h2.0125v-0.33776h-4.3909v0.33776h2.0125v6.7974z"/>
<path d="m126.23 145.43q0-1.0133 0.37999-1.914 0.39405-0.9007 1.0555-1.5622 0.67552-0.67552 1.5762-1.0555 0.9007-0.39406 1.914-0.39406 1.0133 0 1.914 0.39406 0.90069 0.37998 1.5621 1.0555 0.67553 0.66145 1.0555 1.5622 0.39405 0.9007 0.39405 1.914 0 1.0133-0.39405 1.914-0.37998 0.9007-1.0555 1.5762-0.66145 0.66145-1.5621 1.0555-0.9007 0.37998-1.914 0.37998-1.0133 0-1.914-0.37998-0.9007-0.39406-1.5762-1.0555-0.66145-0.67552-1.0555-1.5762-0.37999-0.90069-0.37999-1.914zm1.3229 0q0 0.74589 0.28147 1.4073 0.28147 0.64738 0.77404 1.14t1.1399 0.77403q0.66145 0.28147 1.4073 0.28147t1.3933-0.28147q0.66145-0.28146 1.154-0.77403t0.77404-1.14q0.28146-0.66145 0.28146-1.4073t-0.28146-1.3933q-0.28147-0.66144-0.77404-1.154t-1.154-0.77404q-0.64738-0.28147-1.3933-0.28147t-1.4073 0.28147q-0.64737 0.28147-1.1399 0.77404t-0.77404 1.154q-0.28147 0.64738-0.28147 1.3933zm1.6325 0q0 0.40813 0.15481 0.77404 0.1548 0.35183 0.4222 0.61923 0.26739 0.26739 0.61923 0.4222 0.3659 0.15481 0.77403 0.15481t0.75997-0.15481q0.36591-0.15481 0.6333-0.4222 0.26739-0.2674 0.4222-0.61923 0.15481-0.36591 0.15481-0.77404t-0.15481-0.75996q-0.15481-0.36591-0.4222-0.63331-0.26739-0.26739-0.6333-0.4222-0.35184-0.1548-0.75997-0.1548t-0.77403 0.1548q-0.35184 0.15481-0.61923 0.4222-0.2674 0.2674-0.4222 0.63331-0.15481 0.35183-0.15481 0.75996zm1.9703 3.2369q-0.67552 0-1.2666-0.25332-0.57701-0.25332-1.0274-0.68959-0.43628-0.45035-0.6896-1.0274-0.25332-0.59109-0.25332-1.2666t0.25332-1.2525q0.25332-0.59108 0.6896-1.0274 0.45035-0.45035 1.0274-0.70367 0.59108-0.25332 1.2666-0.25332 0.67553 0 1.2525 0.25332 0.59108 0.25332 1.0274 0.70367 0.45035 0.43628 0.70367 1.0274 0.25333 0.57701 0.25333 1.2525t-0.25333 1.2666q-0.25332 0.57701-0.70367 1.0274-0.43627 0.43627-1.0274 0.68959-0.57701 0.25332-1.2525 0.25332z"/>
</g>
<g transform="translate(-79.76 128.5)" fill="#f3d99b" stroke-width=".35184" aria-label="TÄYDELLINEN UUTTO">
<path d="m78.427 129.52h-1.731v-2.4628h6.5582v2.4628h-1.731v6.9241h-3.0961zm1.731 5.7982v-6.7974h2.0125v-0.33776h-4.3909v0.33776h2.0125v6.7974z"/>
<path d="m86.545 127.05h2.2517l3.5606 9.387h-2.9554l-0.30961-0.8444h-2.8428l-0.30962 0.8444h-2.9554zm1.7592 6.4738-0.6333-1.6466-0.6333 1.6466zm-3.2228 1.7873 0.26739-0.70367h4.6442l0.2674 0.70367h0.39406l-2.7162-7.1352h-0.53479l-2.7162 7.1352zm2.5895-6.7974 2.1955 5.756h-4.3909zm-2.111-3.4339h1.8014v1.4214h-1.8014zm1.2103 0.56294h-0.61923v0.29554h0.61923zm1.2103-0.56294h1.8014v1.4214h-1.8014zm1.2103 0.56294h-0.61923v0.29554h0.61923z"/>
<path d="m92.962 132.4-2.9132-5.3479h3.3354l1.0837 1.9844 1.0696-1.9844h3.3354l-2.9132 5.3479v4.0391h-2.9976zm1.6888 2.9132v-3.3635l2.0547-3.7717h-0.43628l-1.8014 3.3354-1.8155-3.3354h-0.4222l2.0406 3.7717v3.3635z"/>
<path d="m99.096 136.44v-9.387h2.6036q1.3229 0 2.3503 0.29554 1.0414 0.29554 1.7451 0.88662 0.71774 0.59108 1.0836 1.4777 0.37998 0.87255 0.37998 2.0266t-0.37998 2.0406q-0.36591 0.87255-1.0836 1.4636-0.70367 0.59109-1.7451 0.9007-1.0274 0.29554-2.3503 0.29554zm1.7732-1.4636v-6.4597h0.83033q1.7873 0 2.7725 0.81626 0.99921 0.80218 0.99921 2.4066t-0.99921 2.4206q-0.98514 0.81626-2.7725 0.81626zm-0.36591 0.33776h1.1962q2.0547 0 3.0962-0.92884 1.0555-0.94292 1.0555-2.6458t-1.0555-2.6317q-1.0414-0.92884-3.0962-0.92884h-1.1962zm1.5903-1.5481q1.0555 0 1.6325-0.49257 0.57701-0.50664 0.57701-1.534t-0.57701-1.5199-1.6325-0.49257z"/>
<path d="m108.03 127.05h5.5308v2.4628h-2.5332v1.0414h2.491v2.3362h-2.491v1.0836h2.6317v2.4628h-5.6294zm4.5879 8.2611v-0.33776h-2.8147v-3.0821h2.674v-0.33777h-2.674v-3.0398h2.8147v-0.33776h-3.1806v7.1352z"/>
<path d="m114.52 127.05h3.1243v6.9241h2.5895v2.4628h-5.7138zm4.9257 8.2611v-0.33776h-3.1524v-6.7974h-0.36591v7.1352z"/>
<path d="m120.73 127.05h3.1243v6.9241h2.5895v2.4628h-5.7138zm4.9257 8.2611v-0.33776h-3.1524v-6.7974h-0.3659v7.1352z"/>
<path d="m126.94 127.05h3.1806v9.387h-3.1806zm1.7732 8.2611v-7.1352h-0.36591v7.1352z"/>
<path d="m131.12 127.05h2.4628l2.5895 3.6169v-3.6169h2.9413v9.387h-2.4769l-2.5754-3.6028v3.6028h-2.9413zm1.6747 8.2611v-6.5019l4.6442 6.5019h0.36591v-7.1352h-0.36591v6.5019l-4.6442-6.5019h-0.36591v7.1352z"/>
<path d="m140.11 127.05h5.5308v2.4628h-2.5332v1.0414h2.491v2.3362h-2.491v1.0836h2.6317v2.4628h-5.6294zm4.5879 8.2611v-0.33776h-2.8147v-3.0821h2.6739v-0.33777h-2.6739v-3.0398h2.8147v-0.33776h-3.1806v7.1352z"/>
<path d="m146.59 127.05h2.4628l2.5895 3.6169v-3.6169h2.9413v9.387h-2.4769l-2.5754-3.6028v3.6028h-2.9413zm1.6747 8.2611v-6.5019l4.6442 6.5019h0.36591v-7.1352h-0.36591v6.5019l-4.6442-6.5019h-0.36591v7.1352z"/>
<path d="m99.763 149.88q-0.88662 0-1.6044-0.22518-0.71774-0.22517-1.2244-0.67552-0.50664-0.45035-0.78811-1.1399-0.26739-0.6896-0.26739-1.6184v-5.9671h2.9976v5.8405q0 0.49257 0.19703 0.75997 0.2111 0.25332 0.6896 0.25332 0.47849 0 0.67552-0.25332 0.2111-0.2674 0.2111-0.75997v-5.8405h3.0117v5.9671q0 0.92885-0.28147 1.6184-0.26739 0.68959-0.78811 1.1399-0.50664 0.45035-1.2244 0.67552-0.71775 0.22518-1.6044 0.22518zm0-1.6888q-2.111 0-2.111-2.0688v-4.7427h-0.36591v4.7427q0 1.1822 0.6333 1.8155 0.64738 0.61923 1.8436 0.61923 1.1962 0 1.8436-0.61923 0.64738-0.6333 0.64738-1.8155v-4.7427h-0.37998v4.7427q0 2.0688-2.111 2.0688z"/>
<path d="m108.45 149.88q-0.88662 0-1.6044-0.22518-0.71775-0.22517-1.2244-0.67552t-0.78811-1.1399q-0.26739-0.6896-0.26739-1.6184v-5.9671h2.9976v5.8405q0 0.49257 0.19703 0.75997 0.2111 0.25332 0.68959 0.25332 0.4785 0 0.67553-0.25332 0.2111-0.2674 0.2111-0.75997v-5.8405h3.0117v5.9671q0 0.92885-0.28147 1.6184-0.2674 0.68959-0.78811 1.1399-0.50664 0.45035-1.2244 0.67552-0.71774 0.22518-1.6044 0.22518zm0-1.6888q-2.111 0-2.111-2.0688v-4.7427h-0.3659v4.7427q0 1.1822 0.6333 1.8155 0.64738 0.61923 1.8436 0.61923 1.1962 0 1.8436-0.61923 0.64738-0.6333 0.64738-1.8155v-4.7427h-0.37999v4.7427q0 2.0688-2.111 2.0688z"/>
<path d="m114.53 142.71h-1.731v-2.4628h6.5582v2.4628h-1.731v6.9241h-3.0962zm1.731 5.7982v-6.7974h2.0125v-0.33776h-4.3909v0.33776h2.0125v6.7974z"/>
<path d="m121.53 142.71h-1.731v-2.4628h6.5582v2.4628h-1.731v6.9241h-3.0961zm1.731 5.7982v-6.7974h2.0125v-0.33776h-4.3909v0.33776h2.0125v6.7974z"/>
<path d="m126.23 144.95q0-1.0133 0.37999-1.914 0.39405-0.9007 1.0555-1.5622 0.67552-0.67552 1.5762-1.0555 0.9007-0.39405 1.914-0.39405 1.0133 0 1.914 0.39405 0.90069 0.37999 1.5621 1.0555 0.67553 0.66145 1.0555 1.5622 0.39405 0.90069 0.39405 1.914 0 1.0133-0.39405 1.914-0.37998 0.9007-1.0555 1.5762-0.66145 0.66145-1.5621 1.0555-0.9007 0.37998-1.914 0.37998-1.0133 0-1.914-0.37998-0.9007-0.39406-1.5762-1.0555-0.66145-0.67552-1.0555-1.5762-0.37999-0.9007-0.37999-1.914zm1.3229 0q0 0.74589 0.28147 1.4073 0.28147 0.64738 0.77404 1.1399 0.49257 0.49257 1.1399 0.77404 0.66145 0.28147 1.4073 0.28147t1.3933-0.28147q0.66145-0.28147 1.154-0.77404 0.49257-0.49256 0.77404-1.1399 0.28146-0.66145 0.28146-1.4073t-0.28146-1.3933q-0.28147-0.66145-0.77404-1.154t-1.154-0.77403q-0.64738-0.28147-1.3933-0.28147t-1.4073 0.28147q-0.64737 0.28146-1.1399 0.77403t-0.77404 1.154q-0.28147 0.64738-0.28147 1.3933zm1.6325 0q0 0.40813 0.15481 0.77404 0.1548 0.35183 0.4222 0.61923 0.26739 0.26739 0.61923 0.4222 0.3659 0.1548 0.77403 0.1548t0.75997-0.1548q0.36591-0.15481 0.6333-0.4222 0.26739-0.2674 0.4222-0.61923 0.15481-0.36591 0.15481-0.77404t-0.15481-0.75996q-0.15481-0.36591-0.4222-0.63331-0.26739-0.26739-0.6333-0.4222-0.35184-0.15481-0.75997-0.15481t-0.77403 0.15481q-0.35184 0.15481-0.61923 0.4222-0.2674 0.2674-0.4222 0.63331-0.15481 0.35183-0.15481 0.75996zm1.9703 3.2369q-0.67552 0-1.2666-0.25332-0.57701-0.25332-1.0274-0.6896-0.43628-0.45035-0.6896-1.0274-0.25332-0.59108-0.25332-1.2666t0.25332-1.2525q0.25332-0.59109 0.6896-1.0274 0.45035-0.45035 1.0274-0.70367 0.59108-0.25332 1.2666-0.25332 0.67553 0 1.2525 0.25332 0.59108 0.25332 1.0274 0.70367 0.45035 0.43627 0.70367 1.0274 0.25333 0.57701 0.25333 1.2525t-0.25333 1.2666q-0.25332 0.57701-0.70367 1.0274-0.43627 0.43628-1.0274 0.6896-0.57701 0.25332-1.2525 0.25332z"/>
</g>
<g transform="translate(-79.76 128.5)" fill="#3e535e" stroke-width=".24326" aria-label="Deluxe">
<path d="m107.71 156.73c-0.67139 1.0022-1.479 2.5202-1.7806 3.4348-0.20434 0.63247-0.15568 0.77843 0.0292 1.0314 0.13623 0.19461 0.29191 0.3211 0.40867 0.41841 0.16542 0.13622 0.34056 0.16541 0.62274 0.0681 2.6077-0.866 4.3397-3.7072 3.4445-5.2641-0.36002-0.63247-0.84653-0.95357-1.4693-0.85627-0.63247 0.0973-1.119 0.48652-1.7904 0.57409-0.1265 0.0195-0.13623 0.0778-0.0973 0.18487 0.0584 0.14596 0.25299 0.38921 0.63247 0.40867zm0.51571-0.0973c0.68112-0.22379 1.3914-0.7395 1.732-0.1946 0.57408 0.91464-0.65193 3.6975-3.3083 4.7094-0.29191 0.10703-0.36002-0.0292-0.23353-0.43786 0.28218-0.89519 1.0703-2.1893 1.5568-3.0553 0.24326-0.42813 0.30164-0.77842 0.25299-1.0217z"/>
<path d="m111.25 159.94c0.68112 0.55462 1.333 0.30164 1.8098-0.28218 0.40867-0.49625 0.48652-1.0898 0.31137-1.3233-0.15568-0.21407-0.33083-0.36002-0.57409-0.50597-0.48651-0.28218-1.479 0.22379-2.1115 1.479-0.63247 1.2552-0.20433 2.4715 1.0314 2.452 0.74923-0.01 1.4985-0.45732 1.9071-1.0509 0.17514-0.25299 0.20433-0.52544 0.16541-0.60328-0.0389-0.0876-0.11676-0.0876-0.16541-0.01-0.4184 0.6422-1.1287 1.4206-1.9363 1.3817-0.5157-0.0292-0.74923-0.6422-0.43786-1.5374zm0.0876-0.21407c0.0195-0.0486 0.0487-0.10703 0.0778-0.16541 0.45733-0.92438 1.2649-1.5082 1.4693-1.3428 0.13622 0.10703-0.0778 0.61301-0.38922 1.0217-0.28217 0.36975-0.68111 0.78815-1.1579 0.48651z"/>
<path d="m114.43 159.65c0.866-0.56436 1.9558-1.732 2.2574-2.9288 0.11676-0.45732 0.0584-0.81734-0.2238-1.0703-0.13622-0.12649-0.27245-0.10703-0.4184 0.0487-0.99249 1.0314-2.1017 2.7926-2.4618 4.4856-0.2238 1.0509 0.13622 1.5179 0.80761 1.5374 0.77842 0.0195 1.4887-0.78815 1.625-1.0801 0.10703-0.23353 0.14595-0.4476 0.0973-0.60328-0.0389-0.13622-0.14595-0.12649-0.21407 0-0.37948 0.74923-1.0606 1.4498-1.5276 1.4109-0.43786-0.0389-0.33083-0.84653 0.0584-1.8001zm0.17515-0.4184c0.0681-0.15569 0.14595-0.31137 0.23352-0.46706 0.67139-1.2455 1.3914-2.3255 1.5179-2.2477 0.12649 0.0778-0.41841 1.6347-1.7514 2.7148z"/>
<path d="m120.23 160.16c-0.79788 0.72004-1.5763 1.2844-1.9752 1.2941-0.28218 0.01-0.22379-0.35029-0.0486-0.74923 0.23353-0.53517 0.76869-1.3914 0.98276-1.8293 0.23353-0.48652 0.15568-0.90492 0.01-1.0801-0.0778-0.0876-0.15568-0.0681-0.24326 0.0584-0.30164 0.4184-0.58381 1.0898-1.1871 2.0726-0.51571 0.84653-1.0606 1.5082-1.4401 1.479-0.21407-0.0195-0.24326-0.36002-0.0486-0.8368 0.18487-0.45733 0.40867-0.84654 0.75896-1.4206 0.35029-0.57408 0.39894-0.98275 0.18487-1.3038-0.0778-0.0876-0.16541-0.0973-0.24325 0.01-0.63247 0.87572-1.119 1.8293-1.3428 2.4618-0.2238 0.6422-0.19461 1.3525 0.49624 1.4109 0.51571 0.0389 0.99249-0.40867 1.3233-0.83681-0.0486 0.52544 0.23353 0.85627 0.7395 0.85627 0.53517 0 1.3233-0.51571 2.0726-1.1287v0.0389c0.0778 0.78815 0.33083 1.1092 0.84653 1.0898 0.48652-0.0195 0.99249-0.34056 1.333-0.95357 0.15569-0.28218 0.15569-0.5157 0.1265-0.66166-0.0195-0.0973-0.1265-0.0973-0.17515-0.01-0.25299 0.59355-0.74923 1.3136-1.0898 1.3039-0.13622 0-0.26272-0.12649-0.31137-0.52544-0.0292-0.21406-0.0486-0.53516-0.0681-0.87572 0.5449-0.52544 1.012-1.0411 1.2163-1.3428 0.19461-0.28218 0.38922-0.56436 0.39895-0.79788 0.01-0.17515-0.11677-0.15569-0.19461-0.0486-0.35029 0.48651-0.88546 1.0995-1.4595 1.6833-0.0195-0.28217-0.0389-0.55462-0.0681-0.79788-0.0681-0.66166-0.36002-0.89518-0.65193-0.9633-0.11677-0.01-0.20434 0.0195-0.17515 0.14596 0.0973 0.47678 0.16542 1.5179 0.23353 2.2574z"/>
<path d="m122.96 159.94c0.68112 0.55462 1.333 0.30164 1.8098-0.28218 0.40868-0.49625 0.48652-1.0898 0.31137-1.3233-0.15568-0.21407-0.33083-0.36002-0.57408-0.50597-0.48652-0.28218-1.479 0.22379-2.1115 1.479-0.63247 1.2552-0.20434 2.4715 1.0314 2.452 0.74923-0.01 1.4985-0.45732 1.9071-1.0509 0.17515-0.25299 0.20434-0.52544 0.16541-0.60328-0.0389-0.0876-0.11676-0.0876-0.16541-0.01-0.4184 0.6422-1.1287 1.4206-1.9363 1.3817-0.5157-0.0292-0.74923-0.6422-0.43786-1.5374zm0.0876-0.21407c0.0195-0.0486 0.0487-0.10703 0.0778-0.16541 0.45732-0.92438 1.2649-1.5082 1.4693-1.3428 0.13622 0.10703-0.0778 0.61301-0.38921 1.0217-0.28218 0.36975-0.68112 0.78815-1.1579 0.48651z"/>
</g>
</g>
</svg>
